<?xml version="1.0" encoding="UTF-8"?><svg id="Layer_2" xmlns="http://www.w3.org/2000/svg" viewBox="0 0 465 94.66"><defs><style>.cls-1{fill:#1d1d1b;}</style></defs><g id="Layer_1-2"><g><path class="cls-1" d="M0,75.04V4.25H27.31c7.55,0,14.12,1.53,19.72,4.6,5.6,3.07,9.96,7.25,13.1,12.54,3.13,5.29,4.7,11.38,4.7,18.25s-1.57,12.96-4.7,18.25c-3.14,5.29-7.5,9.47-13.1,12.54-5.6,3.07-12.17,4.6-19.72,4.6H0Zm3.44-3.13H27.1c6.94,0,13-1.38,18.15-4.15,5.16-2.76,9.14-6.57,11.93-11.43,2.8-4.85,4.2-10.42,4.2-16.69s-1.4-11.83-4.2-16.69c-2.8-4.85-6.78-8.66-11.93-11.43-5.16-2.76-11.21-4.15-18.15-4.15H3.44V71.91Z"/><path class="cls-1" d="M102.45,75.34c-5.19,0-9.78-1.13-13.75-3.39-3.98-2.26-7.11-5.41-9.4-9.46-2.29-4.05-3.44-8.63-3.44-13.75s1.06-9.78,3.19-13.75c2.12-3.98,5.06-7.11,8.8-9.41,3.74-2.29,7.97-3.44,12.69-3.44s8.85,1.11,12.59,3.34,6.67,5.31,8.8,9.25c2.12,3.94,3.19,8.48,3.19,13.6v.91h-47.03v-2.73h45.21l-1.31,1.62c0-4.38-.93-8.31-2.78-11.78-1.85-3.47-4.4-6.2-7.64-8.19-3.24-1.99-6.91-2.98-11.02-2.98s-7.79,1-11.02,2.98c-3.24,1.99-5.78,4.72-7.64,8.19-1.85,3.47-2.78,7.43-2.78,11.88v.61c0,4.59,1.01,8.65,3.03,12.19s4.79,6.31,8.29,8.29c3.5,1.99,7.52,2.98,12.03,2.98,3.44,0,6.69-.64,9.76-1.92,3.07-1.28,5.61-3.24,7.64-5.87l2.12,2.23c-2.36,2.83-5.24,4.97-8.65,6.42-3.41,1.45-7.03,2.17-10.87,2.17Z"/><path class="cls-1" d="M153.82,75.04l-23.97-52.49h3.64l22.76,50.47h-1.52l22.86-50.47h3.54l-23.97,52.49h-3.34Z"/><path class="cls-1" d="M211.97,75.34c-5.19,0-9.78-1.13-13.75-3.39-3.98-2.26-7.11-5.41-9.4-9.46-2.29-4.05-3.44-8.63-3.44-13.75s1.06-9.78,3.19-13.75c2.12-3.98,5.06-7.11,8.8-9.41,3.74-2.29,7.97-3.44,12.69-3.44s8.85,1.11,12.59,3.34,6.67,5.31,8.8,9.25c2.12,3.94,3.19,8.48,3.19,13.6v.91h-47.03v-2.73h45.21l-1.31,1.62c0-4.38-.93-8.31-2.78-11.78-1.85-3.47-4.4-6.2-7.64-8.19-3.24-1.99-6.91-2.98-11.02-2.98s-7.79,1-11.02,2.98c-3.24,1.99-5.78,4.72-7.64,8.19-1.85,3.47-2.78,7.43-2.78,11.88v.61c0,4.59,1.01,8.65,3.03,12.19s4.79,6.31,8.29,8.29c3.5,1.99,7.52,2.98,12.03,2.98,3.44,0,6.69-.64,9.76-1.92,3.07-1.28,5.61-3.24,7.64-5.87l2.12,2.23c-2.36,2.83-5.24,4.97-8.65,6.42-3.41,1.45-7.03,2.17-10.87,2.17Z"/><path class="cls-1" d="M251.11,75.04V0h3.34V75.04h-3.34Z"/><path class="cls-1" d="M296.72,75.34c-4.92,0-9.32-1.13-13.2-3.39-3.88-2.26-6.95-5.39-9.2-9.41-2.26-4.01-3.39-8.61-3.39-13.8s1.13-9.78,3.39-13.75c2.26-3.98,5.32-7.11,9.2-9.41,3.87-2.29,8.28-3.44,13.2-3.44s9.34,1.13,13.25,3.39c3.91,2.26,6.98,5.38,9.2,9.35,2.22,3.98,3.34,8.6,3.34,13.86s-1.11,9.71-3.34,13.75c-2.23,4.05-5.29,7.2-9.2,9.46-3.91,2.26-8.33,3.39-13.25,3.39Zm0-3.03c4.31,0,8.17-.99,11.58-2.98,3.4-1.99,6.07-4.77,7.99-8.34,1.92-3.57,2.88-7.65,2.88-12.24s-.96-8.75-2.88-12.29-4.59-6.29-7.99-8.24c-3.41-1.95-7.23-2.93-11.48-2.93s-8.16,.98-11.53,2.93c-3.37,1.96-6.05,4.7-8.04,8.24-1.99,3.54-2.98,7.64-2.98,12.29s.99,8.66,2.98,12.24c1.99,3.57,4.67,6.36,8.04,8.34,3.37,1.99,7.18,2.98,11.43,2.98Z"/><path class="cls-1" d="M338.99,94.66V22.55h3.24v18.41l-.91,7.99,1.01,7.99v37.72h-3.34Zm25.89-19.32c-4.72,0-8.97-1.1-12.74-3.29-3.78-2.19-6.76-5.29-8.95-9.3-2.19-4.01-3.29-8.65-3.29-13.91s1.1-9.99,3.29-14.01c2.19-4.01,5.17-7.13,8.95-9.35,3.78-2.23,8.02-3.34,12.74-3.34s9.22,1.15,13.1,3.44c3.88,2.29,6.94,5.43,9.2,9.41,2.26,3.98,3.39,8.6,3.39,13.85s-1.13,9.78-3.39,13.75-5.33,7.1-9.2,9.35c-3.88,2.26-8.24,3.39-13.1,3.39Zm-.1-3.03c4.25,0,8.07-.98,11.48-2.93,3.4-1.95,6.08-4.72,8.04-8.29,1.95-3.57,2.93-7.65,2.93-12.24s-.98-8.83-2.93-12.34c-1.96-3.51-4.64-6.25-8.04-8.24-3.41-1.99-7.23-2.98-11.48-2.98s-8.16,1-11.53,2.98c-3.37,1.99-6.03,4.74-7.99,8.24-1.96,3.51-2.93,7.62-2.93,12.34s.98,8.66,2.93,12.24c1.95,3.57,4.62,6.34,7.99,8.29,3.37,1.96,7.21,2.93,11.53,2.93Z"/><path class="cls-1" d="M396.74,75.04l29.83-41.16v10.01l-28.52-39.64h14.97l21.24,29.23-6.17,.1,20.93-29.33h14.26l-28.22,38.94v-9.51l29.94,41.36h-15.07l-22.25-31.15h5.97l-21.95,31.15h-14.97Z"/></g></g></svg>