<?xml version="1.0" encoding="UTF-8"?><svg id="Layer_2" xmlns="http://www.w3.org/2000/svg" viewBox="0 0 642.35 61.16"><defs><style>.cls-1{fill:#1d1d1b;}</style></defs><g id="Layer_1-2"><g><path class="cls-1" d="M9.37,48.63c-1.98,0-3.67-.3-5.06-.91-1.39-.6-2.46-1.47-3.2-2.59-.74-1.12-1.11-2.41-1.11-3.85,0-1.28,.3-2.46,.91-3.55,.6-1.09,1.6-1.96,3-2.62,1.39-.65,3.27-.98,5.62-.98h10.12v1.36H9.52c-2.85,0-4.88,.54-6.07,1.61-1.19,1.07-1.79,2.43-1.79,4.08,0,1.85,.69,3.32,2.07,4.41,1.38,1.09,3.29,1.64,5.74,1.64s4.41-.55,5.99-1.64c1.58-1.09,2.77-2.64,3.58-4.66l.55,1.11c-.67,1.98-1.88,3.58-3.63,4.78-1.75,1.21-3.95,1.81-6.6,1.81Zm9.72-.15v-6.09l-.05-.91v-9.92c0-2.58-.69-4.55-2.07-5.89-1.38-1.34-3.37-2.01-5.99-2.01-1.91,0-3.66,.33-5.24,.98s-2.94,1.5-4.08,2.54l-.91-1.21c1.24-1.18,2.77-2.11,4.58-2.79,1.81-.69,3.71-1.03,5.69-1.03,3.12,0,5.51,.8,7.18,2.39,1.66,1.59,2.49,3.94,2.49,7.03v16.92h-1.61Z"/><path class="cls-1" d="M50.75,48.48V2.74h18.1c4.83,0,9.08,.98,12.74,2.94,3.66,1.96,6.5,4.66,8.53,8.1,2.02,3.44,3.04,7.38,3.04,11.83s-1.01,8.39-3.04,11.83c-2.03,3.44-4.87,6.14-8.53,8.1-3.66,1.96-7.91,2.94-12.74,2.94h-18.1Zm3.33-3.01h14.51c4.31,0,8.06-.85,11.24-2.55s5.64-4.04,7.38-7.02c1.74-2.98,2.61-6.41,2.61-10.29s-.87-7.31-2.61-10.29c-1.74-2.98-4.2-5.33-7.38-7.02s-6.93-2.55-11.24-2.55h-14.51V45.48Z"/><path class="cls-1" d="M117.53,48.74c-3.44,0-6.48-.74-9.11-2.22-2.64-1.48-4.7-3.53-6.21-6.14-1.5-2.61-2.25-5.6-2.25-8.95s.71-6.39,2.12-8.98c1.41-2.59,3.36-4.63,5.85-6.11,2.48-1.48,5.27-2.22,8.36-2.22s5.87,.72,8.33,2.16,4.4,3.45,5.82,6.04c1.41,2.59,2.12,5.59,2.12,8.98,0,.13-.01,.27-.03,.42-.02,.15-.03,.32-.03,.49h-30.12v-2.55h28.36l-1.31,1.24c.04-2.66-.51-5.04-1.67-7.15-1.16-2.11-2.71-3.77-4.67-4.97-1.96-1.2-4.22-1.8-6.8-1.8s-4.78,.6-6.76,1.8c-1.98,1.2-3.54,2.85-4.67,4.97-1.13,2.11-1.7,4.52-1.7,7.22v.59c0,2.79,.62,5.26,1.86,7.42s2.95,3.83,5.13,5.03c2.18,1.2,4.66,1.8,7.45,1.8,2.18,0,4.22-.39,6.11-1.18,1.9-.78,3.5-1.98,4.8-3.59l1.89,2.16c-1.48,1.83-3.34,3.21-5.59,4.15-2.24,.94-4.67,1.4-7.29,1.4Z"/><path class="cls-1" d="M150.66,48.48l-15.36-34.11h3.46l14.37,32.28h-1.57l14.51-32.28h3.33l-15.42,34.11h-3.33Z"/><path class="cls-1" d="M189.41,48.74c-3.44,0-6.48-.74-9.11-2.22-2.64-1.48-4.7-3.53-6.21-6.14-1.5-2.61-2.25-5.6-2.25-8.95s.71-6.39,2.12-8.98c1.41-2.59,3.36-4.63,5.85-6.11,2.48-1.48,5.27-2.22,8.36-2.22s5.87,.72,8.33,2.16,4.4,3.45,5.82,6.04c1.41,2.59,2.12,5.59,2.12,8.98,0,.13-.01,.27-.03,.42-.02,.15-.03,.32-.03,.49h-30.12v-2.55h28.36l-1.31,1.24c.04-2.66-.51-5.04-1.67-7.15-1.16-2.11-2.71-3.77-4.67-4.97-1.96-1.2-4.22-1.8-6.8-1.8s-4.78,.6-6.76,1.8c-1.98,1.2-3.54,2.85-4.67,4.97-1.13,2.11-1.7,4.52-1.7,7.22v.59c0,2.79,.62,5.26,1.86,7.42s2.95,3.83,5.13,5.03c2.18,1.2,4.66,1.8,7.45,1.8,2.18,0,4.22-.39,6.11-1.18,1.9-.78,3.5-1.98,4.8-3.59l1.89,2.16c-1.48,1.83-3.34,3.21-5.59,4.15-2.24,.94-4.67,1.4-7.29,1.4Z"/><path class="cls-1" d="M214.56,48.48V0h3.27V48.48h-3.27Z"/><path class="cls-1" d="M244.94,48.74c-3.27,0-6.17-.74-8.72-2.22-2.55-1.48-4.57-3.53-6.08-6.14-1.5-2.61-2.25-5.6-2.25-8.95s.75-6.39,2.25-8.98c1.5-2.59,3.53-4.63,6.08-6.11,2.55-1.48,5.46-2.22,8.72-2.22s6.19,.74,8.76,2.22c2.57,1.48,4.6,3.52,6.08,6.11,1.48,2.59,2.22,5.59,2.22,8.98s-.74,6.34-2.22,8.95c-1.48,2.61-3.51,4.66-6.08,6.14-2.57,1.48-5.49,2.22-8.76,2.22Zm0-2.94c2.61,0,4.97-.6,7.06-1.8,2.09-1.2,3.72-2.89,4.9-5.06s1.76-4.68,1.76-7.51-.59-5.39-1.76-7.55-2.81-3.83-4.9-5.03c-2.09-1.2-4.44-1.8-7.06-1.8s-4.96,.6-7.02,1.8c-2.07,1.2-3.7,2.88-4.9,5.03-1.2,2.16-1.8,4.67-1.8,7.55s.6,5.34,1.8,7.51c1.2,2.18,2.83,3.87,4.9,5.06,2.07,1.2,4.41,1.8,7.02,1.8Z"/><path class="cls-1" d="M272.12,61.16V14.38h3.14v11.17l-.52,5.95,.65,5.95v23.72h-3.27Zm17.12-12.41c-3.01,0-5.72-.7-8.13-2.09-2.42-1.39-4.34-3.39-5.75-5.98-1.42-2.59-2.12-5.67-2.12-9.25s.71-6.65,2.12-9.25c1.42-2.59,3.33-4.58,5.75-5.98,2.42-1.39,5.13-2.09,8.13-2.09,3.22,0,6.11,.73,8.66,2.19,2.55,1.46,4.55,3.5,6.01,6.11,1.46,2.61,2.19,5.62,2.19,9.02s-.73,6.4-2.19,9.02c-1.46,2.61-3.46,4.65-6.01,6.11-2.55,1.46-5.43,2.19-8.66,2.19Zm-.2-2.94c2.61,0,4.97-.6,7.06-1.8,2.09-1.2,3.73-2.89,4.93-5.06,1.2-2.18,1.8-4.68,1.8-7.51s-.6-5.39-1.8-7.55c-1.2-2.16-2.84-3.83-4.93-5.03-2.09-1.2-4.44-1.8-7.06-1.8s-4.95,.6-7.02,1.8c-2.07,1.2-3.7,2.88-4.9,5.03s-1.8,4.67-1.8,7.55,.6,5.34,1.8,7.51,2.83,3.87,4.9,5.06c2.07,1.2,4.41,1.8,7.02,1.8Z"/><path class="cls-1" d="M309.89,48.48l19.28-26.59v6.47l-18.43-25.61h9.67l13.72,18.88-3.99,.07,13.53-18.95h9.21l-18.23,25.16v-6.14l19.34,26.72h-9.74l-14.37-20.13h3.86l-14.18,20.13h-9.67Z"/><path class="cls-1" d="M376.97,58.25V22.34h1.61v9.17l-.45,3.98,.5,3.98v18.79h-1.66Zm12.89-9.62c-2.35,0-4.47-.55-6.35-1.64-1.88-1.09-3.37-2.64-4.46-4.63-1.09-2-1.64-4.31-1.64-6.93s.55-4.98,1.64-6.98c1.09-2,2.58-3.55,4.46-4.66,1.88-1.11,4-1.66,6.35-1.66s4.59,.57,6.52,1.71c1.93,1.14,3.46,2.7,4.58,4.68,1.12,1.98,1.69,4.28,1.69,6.9s-.56,4.87-1.69,6.85-2.65,3.53-4.58,4.66c-1.93,1.13-4.1,1.69-6.52,1.69Zm-.05-1.51c2.12,0,4.02-.49,5.72-1.46s3.03-2.35,4-4.13c.97-1.78,1.46-3.81,1.46-6.09s-.49-4.4-1.46-6.15c-.97-1.75-2.31-3.11-4-4.1s-3.6-1.49-5.72-1.49-4.06,.5-5.74,1.49c-1.68,.99-3.01,2.36-3.98,4.1-.97,1.75-1.46,3.8-1.46,6.15s.49,4.32,1.46,6.09c.97,1.78,2.3,3.16,3.98,4.13,1.68,.97,3.59,1.46,5.74,1.46Z"/><path class="cls-1" d="M410.86,48.48V22.34h1.61v7.2l-.15-.45c.71-2.18,1.94-3.89,3.7-5.11,1.76-1.23,3.97-1.84,6.62-1.84v1.66h-.45c-3.02,0-5.39,.96-7.1,2.87s-2.57,4.55-2.57,7.91v13.9h-1.66Z"/><path class="cls-1" d="M439.57,48.63c-2.45,0-4.64-.56-6.57-1.69-1.93-1.12-3.46-2.69-4.58-4.68-1.12-2-1.69-4.29-1.69-6.88s.56-4.87,1.69-6.85c1.12-1.98,2.65-3.54,4.58-4.68,1.93-1.14,4.12-1.71,6.57-1.71s4.65,.56,6.6,1.69c1.95,1.13,3.47,2.68,4.58,4.66,1.11,1.98,1.66,4.28,1.66,6.9s-.55,4.84-1.66,6.85c-1.11,2.01-2.64,3.58-4.58,4.71-1.95,1.13-4.15,1.69-6.6,1.69Zm0-1.51c2.15,0,4.07-.5,5.77-1.49,1.69-.99,3.02-2.38,3.98-4.16,.96-1.78,1.44-3.81,1.44-6.09s-.48-4.36-1.44-6.12c-.96-1.76-2.28-3.13-3.98-4.1-1.7-.97-3.6-1.46-5.72-1.46s-4.06,.49-5.74,1.46c-1.68,.97-3.01,2.34-4,4.1-.99,1.76-1.49,3.8-1.49,6.12s.5,4.32,1.49,6.09c.99,1.78,2.33,3.17,4,4.16s3.58,1.49,5.69,1.49Z"/><path class="cls-1" d="M470.45,48.63c-2.42,0-4.59-.56-6.52-1.69-1.93-1.12-3.46-2.69-4.58-4.68-1.12-2-1.69-4.29-1.69-6.88s.56-4.91,1.69-6.87,2.65-3.52,4.58-4.66c1.93-1.14,4.11-1.71,6.52-1.71s4.47,.55,6.35,1.66c1.88,1.11,3.37,2.65,4.46,4.63,1.09,1.98,1.64,4.3,1.64,6.95s-.55,4.94-1.64,6.95c-1.09,2.01-2.58,3.57-4.46,4.66-1.88,1.09-4,1.64-6.35,1.64Zm.05-1.51c2.15,0,4.06-.5,5.74-1.49s3-2.38,3.98-4.16c.97-1.78,1.46-3.81,1.46-6.09s-.49-4.36-1.46-6.12c-.97-1.76-2.3-3.13-3.98-4.1-1.68-.97-3.59-1.46-5.74-1.46s-4.01,.49-5.69,1.46c-1.68,.97-3.01,2.34-4,4.1-.99,1.76-1.49,3.8-1.49,6.12s.5,4.32,1.49,6.09c.99,1.78,2.33,3.17,4,4.16s3.58,1.49,5.69,1.49Zm11.23,1.36v-9.17l.45-3.98-.5-3.98V11.11h1.66V48.48h-1.61Z"/><path class="cls-1" d="M505.05,48.63c-2.25,0-4.18-.41-5.79-1.23-1.61-.82-2.85-2.05-3.73-3.68-.87-1.63-1.31-3.63-1.31-6.02v-15.36h1.66v15.26c0,3.12,.81,5.49,2.42,7.1,1.61,1.61,3.88,2.42,6.8,2.42,2.08,0,3.89-.44,5.41-1.33,1.53-.89,2.69-2.14,3.5-3.75s1.21-3.48,1.21-5.59v-14.1h1.66v26.14h-1.61v-7.3l.2,.45c-.74,2.15-2.02,3.85-3.83,5.11-1.81,1.26-4.01,1.89-6.6,1.89Z"/><path class="cls-1" d="M538.09,48.63c-2.48,0-4.71-.56-6.67-1.69-1.96-1.12-3.51-2.69-4.63-4.68-1.12-2-1.69-4.29-1.69-6.88s.56-4.88,1.69-6.87c1.12-2,2.67-3.56,4.63-4.68,1.96-1.12,4.19-1.69,6.67-1.69,1.98,0,3.81,.38,5.49,1.13s3.07,1.87,4.18,3.35l-1.26,1.06c-.97-1.38-2.19-2.38-3.65-3.02-1.46-.64-3.05-.96-4.76-.96-2.15,0-4.08,.49-5.79,1.46-1.71,.97-3.06,2.34-4.05,4.1-.99,1.76-1.49,3.8-1.49,6.12s.5,4.36,1.49,6.12,2.34,3.14,4.05,4.13,3.64,1.49,5.79,1.49c1.71,0,3.3-.33,4.76-.98,1.46-.65,2.68-1.65,3.65-3l1.26,1.01c-1.11,1.51-2.5,2.64-4.18,3.37-1.68,.74-3.51,1.11-5.49,1.11Z"/><path class="cls-1" d="M551.49,23.8v-1.46h15.21v1.46h-15.21Zm11.58,24.83c-2.15,0-3.8-.6-4.94-1.81-1.14-1.21-1.71-2.84-1.71-4.89V16.6h1.66v25.08c0,1.78,.44,3.14,1.31,4.08,.87,.94,2.15,1.41,3.83,1.41s3.12-.52,4.23-1.56l.86,1.21c-.64,.6-1.43,1.06-2.37,1.36-.94,.3-1.9,.45-2.87,.45Z"/><path class="cls-1" d="M576.52,15.49c-.44,0-.82-.17-1.16-.5s-.5-.71-.5-1.11c0-.47,.17-.86,.5-1.18,.34-.32,.72-.48,1.16-.48,.47,0,.86,.16,1.18,.48,.32,.32,.48,.7,.48,1.13s-.16,.82-.48,1.16c-.32,.34-.71,.5-1.18,.5Zm-.81,32.99V22.34h1.66v26.14h-1.66Z"/><path class="cls-1" d="M598.43,48.63c-2.45,0-4.64-.56-6.57-1.69-1.93-1.12-3.46-2.69-4.58-4.68-1.12-2-1.69-4.29-1.69-6.88s.56-4.87,1.69-6.85c1.12-1.98,2.65-3.54,4.58-4.68,1.93-1.14,4.12-1.71,6.57-1.71s4.65,.56,6.6,1.69c1.95,1.13,3.47,2.68,4.58,4.66,1.11,1.98,1.66,4.28,1.66,6.9s-.55,4.84-1.66,6.85c-1.11,2.01-2.64,3.58-4.58,4.71-1.95,1.13-4.15,1.69-6.6,1.69Zm0-1.51c2.15,0,4.07-.5,5.77-1.49,1.69-.99,3.02-2.38,3.98-4.16,.96-1.78,1.44-3.81,1.44-6.09s-.48-4.36-1.44-6.12c-.96-1.76-2.28-3.13-3.98-4.1-1.7-.97-3.6-1.46-5.72-1.46s-4.06,.49-5.74,1.46c-1.68,.97-3.01,2.34-4,4.1-.99,1.76-1.49,3.8-1.49,6.12s.5,4.32,1.49,6.09c.99,1.78,2.33,3.17,4,4.16s3.58,1.49,5.69,1.49Z"/><path class="cls-1" d="M631.82,22.14c2.15,0,4,.42,5.57,1.26,1.56,.84,2.78,2.07,3.65,3.7,.87,1.63,1.31,3.64,1.31,6.02v15.36h-1.66v-15.26c0-3.12-.79-5.49-2.37-7.1-1.58-1.61-3.8-2.42-6.65-2.42-2.18,0-4.06,.44-5.64,1.31-1.58,.87-2.79,2.12-3.63,3.73-.84,1.61-1.26,3.49-1.26,5.64v14.1h-1.66V22.34h1.61v7.35l-.2-.45c.81-2.18,2.14-3.91,4.01-5.19,1.86-1.28,4.17-1.91,6.92-1.91Z"/></g></g></svg>