<?xml version="1.0" encoding="UTF-8"?><svg id="Layer_2" xmlns="http://www.w3.org/2000/svg" viewBox="0 0 565.58 87.06"><defs><style>.cls-1{fill:#1d1d1b;}</style></defs><g id="Layer_1-2"><g><path class="cls-1" d="M0,69.02V3.91H25.19c6.96,0,13.03,1.41,18.19,4.23,5.16,2.82,9.19,6.67,12.08,11.53,2.89,4.87,4.34,10.46,4.34,16.79s-1.45,11.92-4.34,16.79c-2.89,4.87-6.92,8.71-12.08,11.53-5.16,2.82-11.23,4.23-18.19,4.23H0Zm3.17-2.88H25c6.4,0,11.99-1.27,16.75-3.81,4.76-2.54,8.43-6.05,11.01-10.51,2.58-4.46,3.87-9.58,3.87-15.35s-1.29-10.88-3.87-15.35c-2.58-4.46-6.25-7.97-11.01-10.51-4.76-2.54-10.34-3.81-16.75-3.81H3.17v59.34Z"/><path class="cls-1" d="M94.5,69.29c-4.79,0-9.02-1.04-12.69-3.12-3.67-2.08-6.56-4.98-8.68-8.7-2.11-3.72-3.17-7.94-3.17-12.65s.98-8.99,2.94-12.65c1.96-3.66,4.66-6.54,8.12-8.65,3.45-2.11,7.35-3.16,11.71-3.16s8.16,1.02,11.61,3.07c3.45,2.05,6.16,4.88,8.12,8.51,1.96,3.63,2.94,7.8,2.94,12.51v.84h-43.38v-2.51h41.7l-1.21,1.49c0-4.03-.86-7.64-2.57-10.84-1.71-3.19-4.06-5.7-7.04-7.53-2.99-1.83-6.38-2.74-10.17-2.74s-7.18,.92-10.17,2.74c-2.99,1.83-5.33,4.34-7.04,7.53-1.71,3.19-2.57,6.84-2.57,10.93v.56c0,4.22,.93,7.95,2.8,11.21,1.87,3.26,4.42,5.8,7.65,7.63,3.23,1.83,6.93,2.74,11.1,2.74,3.17,0,6.17-.59,9-1.77,2.83-1.18,5.18-2.98,7.04-5.39l1.96,2.05c-2.18,2.6-4.84,4.57-7.98,5.91-3.14,1.33-6.48,2-10.03,2Z"/><path class="cls-1" d="M141.9,69.02l-22.11-48.27h3.36l20.99,46.41h-1.4l21.08-46.41h3.27l-22.11,48.27h-3.08Z"/><path class="cls-1" d="M195.54,69.29c-4.79,0-9.02-1.04-12.69-3.12-3.67-2.08-6.56-4.98-8.68-8.7-2.11-3.72-3.17-7.94-3.17-12.65s.98-8.99,2.94-12.65c1.96-3.66,4.66-6.54,8.12-8.65,3.45-2.11,7.35-3.16,11.71-3.16s8.16,1.02,11.61,3.07c3.45,2.05,6.16,4.88,8.12,8.51,1.96,3.63,2.94,7.8,2.94,12.51v.84h-43.38v-2.51h41.7l-1.21,1.49c0-4.03-.86-7.64-2.57-10.84-1.71-3.19-4.06-5.7-7.04-7.53-2.99-1.83-6.38-2.74-10.17-2.74s-7.18,.92-10.17,2.74c-2.99,1.83-5.33,4.34-7.04,7.53-1.71,3.19-2.57,6.84-2.57,10.93v.56c0,4.22,.93,7.95,2.8,11.21,1.87,3.26,4.42,5.8,7.65,7.63,3.23,1.83,6.93,2.74,11.1,2.74,3.17,0,6.17-.59,9-1.77,2.83-1.18,5.18-2.98,7.04-5.39l1.96,2.05c-2.18,2.6-4.84,4.57-7.98,5.91-3.14,1.33-6.48,2-10.03,2Z"/><path class="cls-1" d="M231.64,69.02V0h3.08V69.02h-3.08Z"/><path class="cls-1" d="M273.71,69.29c-4.54,0-8.6-1.04-12.17-3.12-3.58-2.08-6.41-4.96-8.49-8.65-2.08-3.69-3.13-7.92-3.13-12.7s1.04-8.99,3.13-12.65c2.08-3.66,4.91-6.54,8.49-8.65,3.58-2.11,7.63-3.16,12.17-3.16s8.61,1.04,12.22,3.12c3.61,2.08,6.44,4.95,8.49,8.6,2.05,3.66,3.08,7.91,3.08,12.74s-1.03,8.93-3.08,12.65c-2.05,3.72-4.88,6.62-8.49,8.7-3.61,2.08-7.68,3.12-12.22,3.12Zm0-2.79c3.98,0,7.54-.91,10.68-2.74,3.14-1.83,5.6-4.39,7.37-7.67,1.77-3.29,2.66-7.04,2.66-11.25s-.89-8.05-2.66-11.3-4.23-5.78-7.37-7.58c-3.14-1.8-6.67-2.7-10.59-2.7s-7.53,.9-10.64,2.7c-3.11,1.8-5.58,4.33-7.42,7.58-1.84,3.26-2.75,7.02-2.75,11.3s.92,7.97,2.75,11.25c1.83,3.29,4.31,5.85,7.42,7.67,3.11,1.83,6.62,2.74,10.54,2.74Z"/><path class="cls-1" d="M312.71,87.06V20.74h2.99v16.93l-.84,7.35,.93,7.35v34.69h-3.08Zm23.88-17.77c-4.35,0-8.27-1.01-11.75-3.02-3.48-2.01-6.24-4.87-8.26-8.56-2.02-3.69-3.03-7.95-3.03-12.79s1.01-9.19,3.03-12.88c2.02-3.69,4.77-6.56,8.26-8.6,3.48-2.05,7.4-3.07,11.75-3.07s8.5,1.05,12.08,3.16c3.58,2.11,6.41,4.99,8.49,8.65,2.08,3.66,3.13,7.91,3.13,12.74s-1.04,8.99-3.13,12.65c-2.08,3.66-4.91,6.53-8.49,8.6-3.58,2.08-7.6,3.12-12.08,3.12Zm-.09-2.79c3.92,0,7.45-.9,10.59-2.7,3.14-1.8,5.61-4.34,7.42-7.63,1.8-3.29,2.71-7.04,2.71-11.25s-.9-8.12-2.71-11.35c-1.8-3.22-4.28-5.75-7.42-7.58-3.14-1.83-6.67-2.74-10.59-2.74s-7.53,.92-10.64,2.74c-3.11,1.83-5.57,4.36-7.37,7.58-1.8,3.22-2.71,7.01-2.71,11.35s.9,7.97,2.71,11.25c1.8,3.29,4.26,5.83,7.37,7.63,3.11,1.8,6.66,2.7,10.64,2.7Z"/><path class="cls-1" d="M365.51,69.02l27.99-38.6v10.98L366.73,3.91h17.07l18.56,26.04-7.28,.19,18.47-26.23h16.33l-26.68,36.83v-10.79l28.27,39.07h-17.45l-19.22-27.62h6.9l-18.94,27.62h-17.26Z"/><path class="cls-1" d="M468.6,69.14c-1.51,0-2.9-.26-4.18-.77-1.28-.51-2.39-1.23-3.34-2.15-.95-.93-1.68-2-2.2-3.24-.52-1.23-.78-2.58-.78-4.05s.26-2.81,.78-4.05c.52-1.23,1.26-2.31,2.2-3.24,.95-.93,2.06-1.64,3.34-2.15,1.28-.51,2.67-.77,4.18-.77,1.37,0,2.66,.21,3.87,.64,1.21,.42,2.25,1.07,3.12,1.94l-.35,.4c-.93-.89-1.95-1.51-3.06-1.88-1.11-.37-2.31-.55-3.58-.55-1.41,0-2.72,.25-3.93,.74-1.21,.49-2.26,1.18-3.16,2.05-.9,.88-1.6,1.9-2.09,3.06-.49,1.17-.74,2.43-.74,3.8s.25,2.64,.74,3.8c.49,1.17,1.19,2.19,2.09,3.06,.9,.88,1.95,1.56,3.16,2.05,1.21,.49,2.52,.74,3.93,.74,1.28,0,2.48-.19,3.61-.58,1.13-.39,2.14-1.02,3.03-1.91l.35,.43c-.87,.87-1.91,1.52-3.12,1.95s-2.5,.65-3.87,.65Zm6.44-2.6v-7.4h.55v7.4h-.55Z"/><path class="cls-1" d="M482.7,69.05v-20.24h6.87c1.66,0,3.09,.27,4.28,.8,1.19,.53,2.1,1.29,2.74,2.27,.64,.98,.96,2.18,.96,3.59s-.32,2.58-.96,3.57c-.64,.99-1.55,1.75-2.74,2.28-1.19,.53-2.61,.8-4.28,.8h-6.55l.26-.26v7.2h-.58Zm.58-7.26l-.26-.23h6.61c2.38,0,4.2-.53,5.45-1.6,1.26-1.07,1.88-2.57,1.88-4.5s-.63-3.45-1.88-4.51c-1.26-1.06-3.07-1.59-5.45-1.59h-6.61l.26-.23v12.66Zm13.83,7.26l-5.31-7.34h.73l5.31,7.34h-.72Z"/><path class="cls-1" d="M511.72,69.14c-1.49,0-2.87-.26-4.13-.77-1.27-.51-2.37-1.23-3.31-2.15-.94-.93-1.67-2-2.19-3.24-.52-1.23-.78-2.58-.78-4.05s.26-2.81,.78-4.05c.52-1.23,1.25-2.31,2.19-3.24,.94-.93,2.04-1.64,3.31-2.15,1.27-.51,2.64-.77,4.13-.77s2.87,.26,4.13,.77c1.27,.51,2.37,1.23,3.31,2.15,.94,.93,1.67,2,2.19,3.24s.78,2.58,.78,4.05-.26,2.81-.78,4.05c-.52,1.23-1.25,2.31-2.19,3.24-.94,.93-2.04,1.64-3.31,2.15-1.27,.51-2.64,.77-4.13,.77Zm0-.55c1.39,0,2.69-.24,3.89-.72,1.2-.48,2.24-1.16,3.13-2.04,.89-.88,1.58-1.9,2.07-3.06,.49-1.17,.74-2.44,.74-3.83s-.25-2.66-.74-3.83c-.49-1.17-1.18-2.19-2.07-3.06-.89-.88-1.93-1.56-3.13-2.04-1.2-.48-2.49-.72-3.89-.72s-2.69,.24-3.89,.72c-1.2,.48-2.24,1.16-3.13,2.04-.89,.88-1.58,1.9-2.07,3.06-.49,1.17-.74,2.44-.74,3.83s.25,2.66,.74,3.83c.49,1.17,1.18,2.19,2.07,3.06,.89,.88,1.93,1.56,3.13,2.04,1.2,.48,2.49,.72,3.89,.72Z"/><path class="cls-1" d="M535.36,69.14c-2.42,0-4.33-.71-5.73-2.14-1.4-1.43-2.1-3.57-2.1-6.42v-11.77h.58v11.74c0,2.7,.63,4.71,1.9,6.04,1.27,1.33,3.05,1.99,5.35,1.99s4.08-.66,5.35-1.99c1.27-1.33,1.9-3.34,1.9-6.04v-11.74h.58v11.77c0,2.85-.7,4.99-2.1,6.42-1.4,1.43-3.31,2.14-5.73,2.14Z"/><path class="cls-1" d="M550.73,69.05v-20.24h6.87c1.66,0,3.09,.27,4.28,.8,1.19,.53,2.1,1.29,2.74,2.27,.64,.98,.96,2.18,.96,3.59s-.32,2.58-.96,3.57c-.64,.99-1.55,1.75-2.74,2.28-1.19,.53-2.61,.8-4.28,.8h-6.55l.26-.26v7.2h-.58Zm.58-7.26l-.26-.23h6.61c2.38,0,4.2-.53,5.45-1.6,1.26-1.07,1.88-2.57,1.88-4.5s-.63-3.45-1.88-4.51c-1.26-1.06-3.07-1.59-5.45-1.59h-6.61l.26-.23v12.66Z"/></g></g></svg>