<?xml version="1.0" encoding="UTF-8"?><svg id="Layer_2" xmlns="http://www.w3.org/2000/svg" viewBox="0 0 742.35 61.64"><defs><style>.cls-1{fill:#1d1d1b;}</style></defs><g id="Layer_1-2"><g><g><path class="cls-1" d="M9.37,49.12c-1.98,0-3.67-.3-5.06-.91-1.39-.6-2.46-1.47-3.2-2.59-.74-1.12-1.11-2.41-1.11-3.85,0-1.28,.3-2.46,.91-3.55,.6-1.09,1.6-1.96,3-2.62,1.39-.65,3.27-.98,5.62-.98h10.12v1.36H9.52c-2.85,0-4.88,.54-6.07,1.61-1.19,1.07-1.79,2.43-1.79,4.08,0,1.85,.69,3.32,2.07,4.41,1.38,1.09,3.29,1.64,5.74,1.64s4.41-.55,5.99-1.64c1.58-1.09,2.77-2.64,3.58-4.66l.55,1.11c-.67,1.98-1.88,3.58-3.63,4.78-1.75,1.21-3.95,1.81-6.6,1.81Zm9.72-.15v-6.09l-.05-.91v-9.92c0-2.58-.69-4.55-2.07-5.89-1.38-1.34-3.37-2.01-5.99-2.01-1.91,0-3.66,.33-5.24,.98s-2.94,1.5-4.08,2.54l-.91-1.21c1.24-1.18,2.77-2.11,4.58-2.79,1.81-.69,3.71-1.03,5.69-1.03,3.12,0,5.51,.8,7.18,2.39,1.66,1.59,2.49,3.94,2.49,7.03v16.92h-1.61Z"/><path class="cls-1" d="M50.75,48.97V3.23h18.1c4.83,0,9.08,.98,12.74,2.94,3.66,1.96,6.5,4.66,8.53,8.1,2.02,3.44,3.04,7.38,3.04,11.83s-1.01,8.39-3.04,11.83c-2.03,3.44-4.87,6.14-8.53,8.1-3.66,1.96-7.91,2.94-12.74,2.94h-18.1Zm3.33-3.01h14.51c4.31,0,8.06-.85,11.24-2.55s5.64-4.04,7.38-7.02c1.74-2.98,2.61-6.41,2.61-10.29s-.87-7.31-2.61-10.29c-1.74-2.98-4.2-5.33-7.38-7.02s-6.93-2.55-11.24-2.55h-14.51V45.96Z"/><path class="cls-1" d="M117.53,49.23c-3.44,0-6.48-.74-9.11-2.22-2.64-1.48-4.7-3.53-6.21-6.14-1.5-2.61-2.25-5.6-2.25-8.95s.71-6.39,2.12-8.98c1.41-2.59,3.36-4.63,5.85-6.11,2.48-1.48,5.27-2.22,8.36-2.22s5.87,.72,8.33,2.16,4.4,3.45,5.82,6.04c1.41,2.59,2.12,5.59,2.12,8.98,0,.13-.01,.27-.03,.42-.02,.15-.03,.32-.03,.49h-30.12v-2.55h28.36l-1.31,1.24c.04-2.66-.51-5.04-1.67-7.15-1.16-2.11-2.71-3.77-4.67-4.97-1.96-1.2-4.22-1.8-6.8-1.8s-4.78,.6-6.76,1.8c-1.98,1.2-3.54,2.85-4.67,4.97-1.13,2.11-1.7,4.52-1.7,7.22v.59c0,2.79,.62,5.26,1.86,7.42s2.95,3.83,5.13,5.03c2.18,1.2,4.66,1.8,7.45,1.8,2.18,0,4.22-.39,6.11-1.18,1.9-.78,3.5-1.98,4.8-3.59l1.89,2.16c-1.48,1.83-3.34,3.21-5.59,4.15-2.24,.94-4.67,1.4-7.29,1.4Z"/><path class="cls-1" d="M150.66,48.97l-15.36-34.11h3.46l14.37,32.28h-1.57l14.51-32.28h3.33l-15.42,34.11h-3.33Z"/><path class="cls-1" d="M189.41,49.23c-3.44,0-6.48-.74-9.11-2.22-2.64-1.48-4.7-3.53-6.21-6.14-1.5-2.61-2.25-5.6-2.25-8.95s.71-6.39,2.12-8.98c1.41-2.59,3.36-4.63,5.85-6.11,2.48-1.48,5.27-2.22,8.36-2.22s5.87,.72,8.33,2.16,4.4,3.45,5.82,6.04c1.41,2.59,2.12,5.59,2.12,8.98,0,.13-.01,.27-.03,.42-.02,.15-.03,.32-.03,.49h-30.12v-2.55h28.36l-1.31,1.24c.04-2.66-.51-5.04-1.67-7.15-1.16-2.11-2.71-3.77-4.67-4.97-1.96-1.2-4.22-1.8-6.8-1.8s-4.78,.6-6.76,1.8c-1.98,1.2-3.54,2.85-4.67,4.97-1.13,2.11-1.7,4.52-1.7,7.22v.59c0,2.79,.62,5.26,1.86,7.42s2.95,3.83,5.13,5.03c2.18,1.2,4.66,1.8,7.45,1.8,2.18,0,4.22-.39,6.11-1.18,1.9-.78,3.5-1.98,4.8-3.59l1.89,2.16c-1.48,1.83-3.34,3.21-5.59,4.15-2.24,.94-4.67,1.4-7.29,1.4Z"/><path class="cls-1" d="M214.56,48.97V.48h3.27V48.97h-3.27Z"/><path class="cls-1" d="M244.94,49.23c-3.27,0-6.17-.74-8.72-2.22-2.55-1.48-4.57-3.53-6.08-6.14-1.5-2.61-2.25-5.6-2.25-8.95s.75-6.39,2.25-8.98c1.5-2.59,3.53-4.63,6.08-6.11,2.55-1.48,5.46-2.22,8.72-2.22s6.19,.74,8.76,2.22c2.57,1.48,4.6,3.52,6.08,6.11,1.48,2.59,2.22,5.59,2.22,8.98s-.74,6.34-2.22,8.95c-1.48,2.61-3.51,4.66-6.08,6.14-2.57,1.48-5.49,2.22-8.76,2.22Zm0-2.94c2.61,0,4.97-.6,7.06-1.8,2.09-1.2,3.72-2.89,4.9-5.06s1.76-4.68,1.76-7.51-.59-5.39-1.76-7.55-2.81-3.83-4.9-5.03c-2.09-1.2-4.44-1.8-7.06-1.8s-4.96,.6-7.02,1.8c-2.07,1.2-3.7,2.88-4.9,5.03-1.2,2.16-1.8,4.67-1.8,7.55s.6,5.34,1.8,7.51c1.2,2.18,2.83,3.87,4.9,5.06,2.07,1.2,4.41,1.8,7.02,1.8Z"/><path class="cls-1" d="M272.12,61.64V14.86h3.14v11.17l-.52,5.95,.65,5.95v23.72h-3.27Zm17.12-12.41c-3.01,0-5.72-.7-8.13-2.09-2.42-1.39-4.34-3.39-5.75-5.98-1.42-2.59-2.12-5.67-2.12-9.25s.71-6.65,2.12-9.25c1.42-2.59,3.33-4.58,5.75-5.98,2.42-1.39,5.13-2.09,8.13-2.09,3.22,0,6.11,.73,8.66,2.19,2.55,1.46,4.55,3.5,6.01,6.11,1.46,2.61,2.19,5.62,2.19,9.02s-.73,6.4-2.19,9.02c-1.46,2.61-3.46,4.65-6.01,6.11-2.55,1.46-5.43,2.19-8.66,2.19Zm-.2-2.94c2.61,0,4.97-.6,7.06-1.8,2.09-1.2,3.73-2.89,4.93-5.06,1.2-2.18,1.8-4.68,1.8-7.51s-.6-5.39-1.8-7.55c-1.2-2.16-2.84-3.83-4.93-5.03-2.09-1.2-4.44-1.8-7.06-1.8s-4.95,.6-7.02,1.8c-2.07,1.2-3.7,2.88-4.9,5.03s-1.8,4.67-1.8,7.55,.6,5.34,1.8,7.51,2.83,3.87,4.9,5.06c2.07,1.2,4.41,1.8,7.02,1.8Z"/><path class="cls-1" d="M476.97,58.74V22.83h1.61v9.17l-.45,3.98,.5,3.98v18.79h-1.66Zm12.89-9.62c-2.35,0-4.47-.55-6.35-1.64-1.88-1.09-3.37-2.64-4.46-4.63-1.09-2-1.64-4.31-1.64-6.93s.55-4.98,1.64-6.98c1.09-2,2.58-3.55,4.46-4.66,1.88-1.11,4-1.66,6.35-1.66s4.59,.57,6.52,1.71c1.93,1.14,3.46,2.7,4.58,4.68,1.12,1.98,1.69,4.28,1.69,6.9s-.56,4.87-1.69,6.85-2.65,3.53-4.58,4.66c-1.93,1.13-4.1,1.69-6.52,1.69Zm-.05-1.51c2.12,0,4.02-.49,5.72-1.46s3.03-2.35,4-4.13c.97-1.78,1.46-3.81,1.46-6.09s-.49-4.4-1.46-6.15c-.97-1.75-2.31-3.11-4-4.1s-3.6-1.49-5.72-1.49-4.06,.5-5.74,1.49c-1.68,.99-3.01,2.36-3.98,4.1-.97,1.75-1.46,3.8-1.46,6.15s.49,4.32,1.46,6.09c.97,1.78,2.3,3.16,3.98,4.13,1.68,.97,3.59,1.46,5.74,1.46Z"/><path class="cls-1" d="M510.86,48.97V22.83h1.61v7.2l-.15-.45c.71-2.18,1.94-3.89,3.7-5.11,1.76-1.23,3.97-1.84,6.62-1.84v1.66h-.45c-3.02,0-5.39,.96-7.1,2.87s-2.57,4.55-2.57,7.91v13.9h-1.66Z"/><path class="cls-1" d="M539.57,49.12c-2.45,0-4.64-.56-6.57-1.69-1.93-1.12-3.46-2.69-4.58-4.68-1.12-2-1.69-4.29-1.69-6.88s.56-4.87,1.69-6.85c1.12-1.98,2.65-3.54,4.58-4.68,1.93-1.14,4.12-1.71,6.57-1.71s4.65,.56,6.6,1.69c1.95,1.13,3.47,2.68,4.58,4.66,1.11,1.98,1.66,4.28,1.66,6.9s-.55,4.84-1.66,6.85c-1.11,2.01-2.64,3.58-4.58,4.71-1.95,1.13-4.15,1.69-6.6,1.69Zm0-1.51c2.15,0,4.07-.5,5.77-1.49,1.69-.99,3.02-2.38,3.98-4.16,.96-1.78,1.44-3.81,1.44-6.09s-.48-4.36-1.44-6.12c-.96-1.76-2.28-3.13-3.98-4.1-1.7-.97-3.6-1.46-5.72-1.46s-4.06,.49-5.74,1.46c-1.68,.97-3.01,2.34-4,4.1-.99,1.76-1.49,3.8-1.49,6.12s.5,4.32,1.49,6.09c.99,1.78,2.33,3.17,4,4.16s3.58,1.49,5.69,1.49Z"/><path class="cls-1" d="M570.45,49.12c-2.42,0-4.59-.56-6.52-1.69-1.93-1.12-3.46-2.69-4.58-4.68-1.12-2-1.69-4.29-1.69-6.88s.56-4.91,1.69-6.87,2.65-3.52,4.58-4.66c1.93-1.14,4.11-1.71,6.52-1.71s4.47,.55,6.35,1.66c1.88,1.11,3.37,2.65,4.46,4.63,1.09,1.98,1.64,4.3,1.64,6.95s-.55,4.94-1.64,6.95c-1.09,2.01-2.58,3.57-4.46,4.66-1.88,1.09-4,1.64-6.35,1.64Zm.05-1.51c2.15,0,4.06-.5,5.74-1.49s3-2.38,3.98-4.16c.97-1.78,1.46-3.81,1.46-6.09s-.49-4.36-1.46-6.12c-.97-1.76-2.3-3.13-3.98-4.1-1.68-.97-3.59-1.46-5.74-1.46s-4.01,.49-5.69,1.46c-1.68,.97-3.01,2.34-4,4.1-.99,1.76-1.49,3.8-1.49,6.12s.5,4.32,1.49,6.09c.99,1.78,2.33,3.17,4,4.16s3.58,1.49,5.69,1.49Zm11.23,1.36v-9.17l.45-3.98-.5-3.98V11.6h1.66V48.97h-1.61Z"/><path class="cls-1" d="M605.05,49.12c-2.25,0-4.18-.41-5.79-1.23-1.61-.82-2.85-2.05-3.73-3.68-.87-1.63-1.31-3.63-1.31-6.02v-15.36h1.66v15.26c0,3.12,.81,5.49,2.42,7.1,1.61,1.61,3.88,2.42,6.8,2.42,2.08,0,3.89-.44,5.41-1.33,1.53-.89,2.69-2.14,3.5-3.75s1.21-3.48,1.21-5.59v-14.1h1.66v26.14h-1.61v-7.3l.2,.45c-.74,2.15-2.02,3.85-3.83,5.11-1.81,1.26-4.01,1.89-6.6,1.89Z"/><path class="cls-1" d="M638.09,49.12c-2.48,0-4.71-.56-6.67-1.69-1.96-1.12-3.51-2.69-4.63-4.68-1.12-2-1.69-4.29-1.69-6.88s.56-4.88,1.69-6.87c1.12-2,2.67-3.56,4.63-4.68,1.96-1.12,4.19-1.69,6.67-1.69,1.98,0,3.81,.38,5.49,1.13s3.07,1.87,4.18,3.35l-1.26,1.06c-.97-1.38-2.19-2.38-3.65-3.02-1.46-.64-3.05-.96-4.76-.96-2.15,0-4.08,.49-5.79,1.46-1.71,.97-3.06,2.34-4.05,4.1-.99,1.76-1.49,3.8-1.49,6.12s.5,4.36,1.49,6.12,2.34,3.14,4.05,4.13,3.64,1.49,5.79,1.49c1.71,0,3.3-.33,4.76-.98,1.46-.65,2.68-1.65,3.65-3l1.26,1.01c-1.11,1.51-2.5,2.64-4.18,3.37-1.68,.74-3.51,1.11-5.49,1.11Z"/><path class="cls-1" d="M651.49,24.29v-1.46h15.21v1.46h-15.21Zm11.58,24.83c-2.15,0-3.8-.6-4.94-1.81-1.14-1.21-1.71-2.84-1.71-4.89V17.09h1.66v25.08c0,1.78,.44,3.14,1.31,4.08,.87,.94,2.15,1.41,3.83,1.41s3.12-.52,4.23-1.56l.86,1.21c-.64,.6-1.43,1.06-2.37,1.36-.94,.3-1.9,.45-2.87,.45Z"/><path class="cls-1" d="M676.52,15.98c-.44,0-.82-.17-1.16-.5s-.5-.71-.5-1.11c0-.47,.17-.86,.5-1.18,.34-.32,.72-.48,1.16-.48,.47,0,.86,.16,1.18,.48,.32,.32,.48,.7,.48,1.13s-.16,.82-.48,1.16c-.32,.34-.71,.5-1.18,.5Zm-.81,32.99V22.83h1.66v26.14h-1.66Z"/><path class="cls-1" d="M698.43,49.12c-2.45,0-4.64-.56-6.57-1.69-1.93-1.12-3.46-2.69-4.58-4.68-1.12-2-1.69-4.29-1.69-6.88s.56-4.87,1.69-6.85c1.12-1.98,2.65-3.54,4.58-4.68,1.93-1.14,4.12-1.71,6.57-1.71s4.65,.56,6.6,1.69c1.95,1.13,3.47,2.68,4.58,4.66,1.11,1.98,1.66,4.28,1.66,6.9s-.55,4.84-1.66,6.85c-1.11,2.01-2.64,3.58-4.58,4.71-1.95,1.13-4.15,1.69-6.6,1.69Zm0-1.51c2.15,0,4.07-.5,5.77-1.49,1.69-.99,3.02-2.38,3.98-4.16,.96-1.78,1.44-3.81,1.44-6.09s-.48-4.36-1.44-6.12c-.96-1.76-2.28-3.13-3.98-4.1-1.7-.97-3.6-1.46-5.72-1.46s-4.06,.49-5.74,1.46c-1.68,.97-3.01,2.34-4,4.1-.99,1.76-1.49,3.8-1.49,6.12s.5,4.32,1.49,6.09c.99,1.78,2.33,3.17,4,4.16s3.58,1.49,5.69,1.49Z"/><path class="cls-1" d="M731.82,22.63c2.15,0,4,.42,5.57,1.26,1.56,.84,2.78,2.07,3.65,3.7,.87,1.63,1.31,3.64,1.31,6.02v15.36h-1.66v-15.26c0-3.12-.79-5.49-2.37-7.1-1.58-1.61-3.8-2.42-6.65-2.42-2.18,0-4.06,.44-5.64,1.31-1.58,.87-2.79,2.12-3.63,3.73-.84,1.61-1.26,3.49-1.26,5.64v14.1h-1.66V22.83h1.61v7.35l-.2-.45c.81-2.18,2.14-3.91,4.01-5.19,1.86-1.28,4.17-1.91,6.92-1.91Z"/></g><g><path class="cls-1" d="M50.75,48.81V2.76h17.81c4.93,0,9.21,1,12.87,2.99,3.65,2,6.5,4.71,8.54,8.16,2.05,3.44,3.07,7.4,3.07,11.87s-1.02,8.43-3.07,11.87c-2.05,3.44-4.89,6.16-8.54,8.16-3.65,2-7.94,2.99-12.87,2.99h-17.81Zm2.24-2.04h15.44c4.53,0,8.48-.9,11.84-2.7,3.37-1.8,5.96-4.28,7.79-7.43,1.82-3.16,2.74-6.78,2.74-10.85s-.91-7.7-2.74-10.85c-1.83-3.16-4.42-5.63-7.79-7.43-3.36-1.8-7.31-2.7-11.84-2.7h-15.44V46.77Z"/><path class="cls-1" d="M117.59,49.01c-3.39,0-6.38-.73-8.97-2.2-2.6-1.47-4.64-3.52-6.14-6.15-1.5-2.63-2.24-5.61-2.24-8.95s.69-6.36,2.08-8.95c1.39-2.59,3.3-4.63,5.74-6.12,2.44-1.49,5.2-2.24,8.28-2.24s5.77,.72,8.21,2.17c2.44,1.45,4.35,3.45,5.74,6.02,1.39,2.57,2.08,5.52,2.08,8.85v.59h-30.68v-1.78h29.49l-.86,1.05c0-2.85-.6-5.4-1.81-7.66-1.21-2.26-2.87-4.03-4.98-5.33-2.11-1.29-4.51-1.94-7.19-1.94s-5.08,.65-7.19,1.94c-2.11,1.29-3.77,3.07-4.98,5.33-1.21,2.26-1.81,4.84-1.81,7.73v.39c0,2.98,.66,5.62,1.98,7.93,1.32,2.3,3.12,4.1,5.41,5.39,2.29,1.29,4.9,1.94,7.85,1.94,2.24,0,4.37-.42,6.37-1.25,2-.83,3.66-2.1,4.98-3.82l1.39,1.45c-1.54,1.84-3.42,3.23-5.64,4.18-2.22,.94-4.59,1.41-7.09,1.41Z"/><path class="cls-1" d="M151.11,48.81l-15.64-34.14h2.38l14.85,32.83h-.99l14.91-32.83h2.31l-15.64,34.14h-2.18Z"/><path class="cls-1" d="M189.05,49.01c-3.39,0-6.38-.73-8.97-2.2-2.6-1.47-4.64-3.52-6.14-6.15-1.5-2.63-2.24-5.61-2.24-8.95s.69-6.36,2.08-8.95c1.39-2.59,3.3-4.63,5.74-6.12,2.44-1.49,5.2-2.24,8.28-2.24s5.77,.72,8.21,2.17c2.44,1.45,4.35,3.45,5.74,6.02,1.39,2.57,2.08,5.52,2.08,8.85v.59h-30.68v-1.78h29.49l-.86,1.05c0-2.85-.6-5.4-1.81-7.66-1.21-2.26-2.87-4.03-4.98-5.33-2.11-1.29-4.51-1.94-7.19-1.94s-5.08,.65-7.19,1.94c-2.11,1.29-3.77,3.07-4.98,5.33-1.21,2.26-1.81,4.84-1.81,7.73v.39c0,2.98,.66,5.62,1.98,7.93,1.32,2.3,3.12,4.1,5.41,5.39,2.29,1.29,4.9,1.94,7.85,1.94,2.24,0,4.37-.42,6.37-1.25,2-.83,3.66-2.1,4.98-3.82l1.39,1.45c-1.54,1.84-3.42,3.23-5.64,4.18-2.22,.94-4.59,1.41-7.09,1.41Z"/><path class="cls-1" d="M214.58,48.81V0h2.18V48.81h-2.18Z"/><path class="cls-1" d="M244.34,49.01c-3.21,0-6.08-.73-8.61-2.2-2.53-1.47-4.53-3.51-6-6.12-1.47-2.61-2.21-5.6-2.21-8.98s.74-6.36,2.21-8.95c1.47-2.59,3.47-4.63,6-6.12,2.53-1.49,5.4-2.24,8.61-2.24s6.09,.73,8.64,2.2c2.55,1.47,4.55,3.5,6,6.09,1.45,2.59,2.18,5.59,2.18,9.01s-.73,6.32-2.18,8.95c-1.45,2.63-3.45,4.68-6,6.15-2.55,1.47-5.43,2.2-8.64,2.2Zm0-1.97c2.81,0,5.33-.65,7.55-1.94,2.22-1.29,3.96-3.1,5.21-5.43,1.25-2.32,1.88-4.98,1.88-7.96s-.63-5.69-1.88-7.99-2.99-4.09-5.21-5.36c-2.22-1.27-4.72-1.91-7.49-1.91s-5.32,.64-7.52,1.91c-2.2,1.27-3.95,3.06-5.25,5.36-1.3,2.3-1.95,4.97-1.95,7.99s.65,5.64,1.95,7.96c1.3,2.33,3.05,4.13,5.25,5.43,2.2,1.29,4.68,1.94,7.46,1.94Z"/><path class="cls-1" d="M271.92,61.57V14.67h2.11v11.97l-.59,5.2,.66,5.2v24.54h-2.18Zm16.89-12.56c-3.08,0-5.85-.71-8.31-2.14-2.46-1.42-4.41-3.44-5.84-6.05-1.43-2.61-2.14-5.62-2.14-9.05s.71-6.5,2.14-9.11c1.43-2.61,3.38-4.64,5.84-6.09,2.46-1.45,5.23-2.17,8.31-2.17s6.01,.75,8.54,2.24c2.53,1.49,4.53,3.53,6,6.12,1.47,2.59,2.21,5.59,2.21,9.01s-.74,6.36-2.21,8.95c-1.47,2.59-3.48,4.62-6,6.09-2.53,1.47-5.38,2.2-8.54,2.2Zm-.07-1.97c2.77,0,5.27-.64,7.49-1.91,2.22-1.27,3.97-3.07,5.24-5.39,1.28-2.32,1.91-4.98,1.91-7.96s-.64-5.74-1.91-8.03c-1.28-2.28-3.02-4.07-5.24-5.36-2.22-1.29-4.72-1.94-7.49-1.94s-5.32,.65-7.52,1.94c-2.2,1.29-3.94,3.08-5.21,5.36-1.28,2.28-1.91,4.96-1.91,8.03s.64,5.64,1.91,7.96c1.28,2.32,3.01,4.12,5.21,5.39,2.2,1.27,4.71,1.91,7.52,1.91Z"/><path class="cls-1" d="M309.26,48.81l19.79-27.3v7.76l-18.94-26.51h12.07l13.13,18.42-5.15,.13,13.06-18.55h11.55l-18.87,26.05v-7.63l19.99,27.63h-12.34l-13.59-19.54h4.88l-13.39,19.54h-12.21Z"/><path class="cls-1" d="M382.17,48.9c-1.07,0-2.05-.18-2.95-.54-.9-.36-1.69-.87-2.36-1.52-.67-.65-1.19-1.42-1.56-2.29-.37-.87-.55-1.83-.55-2.86s.18-1.99,.55-2.86c.37-.87,.89-1.64,1.56-2.29,.67-.65,1.46-1.16,2.36-1.52,.9-.36,1.89-.54,2.95-.54,.97,0,1.88,.15,2.74,.45,.85,.3,1.59,.76,2.2,1.37l-.25,.29c-.66-.63-1.38-1.07-2.16-1.33-.79-.26-1.63-.39-2.53-.39-1,0-1.92,.17-2.78,.52-.85,.35-1.6,.83-2.24,1.45-.64,.62-1.13,1.34-1.48,2.17-.35,.83-.52,1.72-.52,2.69s.17,1.86,.52,2.69c.35,.83,.84,1.55,1.48,2.17,.64,.62,1.38,1.1,2.24,1.45,.85,.35,1.78,.52,2.78,.52,.9,0,1.75-.14,2.55-.41,.8-.27,1.51-.72,2.14-1.35l.25,.31c-.62,.61-1.35,1.07-2.2,1.38s-1.77,.46-2.74,.46Zm4.55-1.84v-5.24h.39v5.24h-.39Z"/><path class="cls-1" d="M392.14,48.84v-14.31h4.86c1.18,0,2.18,.19,3.03,.56,.84,.37,1.49,.91,1.94,1.61,.45,.7,.68,1.54,.68,2.54s-.23,1.82-.68,2.53c-.45,.7-1.1,1.24-1.94,1.62-.84,.38-1.85,.56-3.03,.56h-4.63l.18-.18v5.09h-.41Zm.41-5.13l-.18-.16h4.68c1.68,0,2.97-.38,3.86-1.13,.89-.76,1.33-1.82,1.33-3.18s-.44-2.44-1.33-3.19c-.89-.75-2.17-1.12-3.86-1.12h-4.68l.18-.16v8.96Zm9.78,5.13l-3.75-5.19h.51l3.75,5.19h-.51Z"/><path class="cls-1" d="M412.67,48.9c-1.05,0-2.03-.18-2.92-.54-.9-.36-1.68-.87-2.34-1.52-.66-.65-1.18-1.42-1.55-2.29-.37-.87-.55-1.83-.55-2.86s.18-1.99,.55-2.86c.37-.87,.88-1.64,1.55-2.29,.66-.65,1.44-1.16,2.34-1.52,.9-.36,1.87-.54,2.92-.54s2.03,.18,2.92,.54c.9,.36,1.67,.87,2.34,1.52,.66,.65,1.18,1.42,1.55,2.29s.55,1.83,.55,2.86-.18,1.99-.55,2.86c-.37,.87-.89,1.64-1.55,2.29-.66,.65-1.44,1.16-2.34,1.52-.9,.36-1.87,.54-2.92,.54Zm0-.39c.98,0,1.9-.17,2.75-.51,.85-.34,1.59-.82,2.21-1.44,.63-.62,1.12-1.34,1.47-2.17,.35-.82,.52-1.73,.52-2.71s-.17-1.88-.52-2.71c-.35-.82-.84-1.55-1.47-2.17-.63-.62-1.37-1.1-2.21-1.44-.85-.34-1.76-.51-2.75-.51s-1.9,.17-2.75,.51c-.85,.34-1.59,.82-2.22,1.44-.63,.62-1.12,1.34-1.47,2.17-.35,.83-.52,1.73-.52,2.71s.17,1.88,.52,2.71c.35,.83,.84,1.55,1.47,2.17,.63,.62,1.37,1.1,2.22,1.44,.85,.34,1.76,.51,2.75,.51Z"/><path class="cls-1" d="M429.38,48.9c-1.71,0-3.06-.5-4.05-1.51-.99-1.01-1.49-2.52-1.49-4.54v-8.32h.41v8.3c0,1.91,.45,3.33,1.34,4.27,.9,.94,2.16,1.41,3.78,1.41s2.89-.47,3.78-1.41c.9-.94,1.34-2.36,1.34-4.27v-8.3h.41v8.32c0,2.02-.5,3.53-1.49,4.54-.99,1.01-2.34,1.51-4.05,1.51Z"/><path class="cls-1" d="M440.25,48.84v-14.31h4.86c1.18,0,2.18,.19,3.03,.56,.84,.37,1.49,.91,1.94,1.61,.45,.7,.68,1.54,.68,2.54s-.23,1.82-.68,2.53c-.45,.7-1.1,1.24-1.94,1.62-.84,.38-1.85,.56-3.03,.56h-4.63l.18-.18v5.09h-.41Zm.41-5.13l-.18-.16h4.68c1.68,0,2.97-.38,3.86-1.13,.89-.76,1.33-1.82,1.33-3.18s-.44-2.44-1.33-3.19c-.89-.75-2.17-1.12-3.86-1.12h-4.68l.18-.16v8.96Z"/></g></g></g></svg>