<?xml version="1.0" encoding="UTF-8"?><svg id="Layer_2" xmlns="http://www.w3.org/2000/svg" viewBox="0 0 145.14 216.72"><defs><style>.cls-1{fill:#1d1d1b;}</style></defs><g id="Layer_1-2"><g><path class="cls-1" d="M2.97,27.09V1.53H12.83c2.73,0,5.1,.55,7.12,1.66,2.02,1.11,3.6,2.62,4.73,4.53,1.13,1.91,1.7,4.11,1.7,6.59s-.57,4.68-1.7,6.59c-1.13,1.91-2.71,3.42-4.73,4.53-2.02,1.11-4.39,1.66-7.12,1.66H2.97Zm1.24-1.13H12.76c2.51,0,4.69-.5,6.55-1.5,1.86-1,3.3-2.37,4.31-4.12,1.01-1.75,1.51-3.76,1.51-6.02s-.51-4.27-1.51-6.02c-1.01-1.75-2.45-3.13-4.31-4.12-1.86-1-4.05-1.5-6.55-1.5H4.21V25.95Z"/><path class="cls-1" d="M39.95,27.2c-1.87,0-3.53-.41-4.96-1.22-1.44-.82-2.57-1.95-3.39-3.41-.83-1.46-1.24-3.11-1.24-4.96s.38-3.53,1.15-4.96c.77-1.44,1.83-2.57,3.18-3.4,1.35-.83,2.88-1.24,4.58-1.24s3.19,.4,4.54,1.2,2.41,1.92,3.18,3.34c.77,1.42,1.15,3.06,1.15,4.91v.33H31.15v-.99h16.32l-.47,.58c0-1.58-.33-3-1-4.25-.67-1.25-1.59-2.24-2.76-2.96-1.17-.72-2.49-1.08-3.98-1.08s-2.81,.36-3.98,1.08c-1.17,.72-2.09,1.7-2.76,2.96-.67,1.25-1,2.68-1,4.29v.22c0,1.66,.37,3.12,1.1,4.4s1.73,2.28,2.99,2.99c1.26,.72,2.71,1.08,4.34,1.08,1.24,0,2.41-.23,3.52-.69,1.11-.46,2.03-1.17,2.76-2.12l.77,.8c-.85,1.02-1.89,1.8-3.12,2.32-1.23,.52-2.54,.79-3.92,.79Z"/><path class="cls-1" d="M58.49,27.09l-8.65-18.95h1.31l8.21,18.22h-.55l8.25-18.22h1.28l-8.65,18.95h-1.2Z"/><path class="cls-1" d="M79.48,27.2c-1.87,0-3.53-.41-4.96-1.22-1.44-.82-2.57-1.95-3.39-3.41-.83-1.46-1.24-3.11-1.24-4.96s.38-3.53,1.15-4.96c.77-1.44,1.83-2.57,3.18-3.4,1.35-.83,2.88-1.24,4.58-1.24s3.19,.4,4.54,1.2,2.41,1.92,3.18,3.34c.77,1.42,1.15,3.06,1.15,4.91v.33h-16.97v-.99h16.32l-.47,.58c0-1.58-.33-3-1-4.25-.67-1.25-1.59-2.24-2.76-2.96-1.17-.72-2.49-1.08-3.98-1.08s-2.81,.36-3.98,1.08c-1.17,.72-2.09,1.7-2.76,2.96-.67,1.25-1,2.68-1,4.29v.22c0,1.66,.37,3.12,1.1,4.4s1.73,2.28,2.99,2.99c1.26,.72,2.71,1.08,4.34,1.08,1.24,0,2.41-.23,3.52-.69,1.11-.46,2.03-1.17,2.76-2.12l.77,.8c-.85,1.02-1.89,1.8-3.12,2.32-1.23,.52-2.54,.79-3.92,.79Z"/><path class="cls-1" d="M93.61,27.09V0h1.2V27.09h-1.2Z"/><path class="cls-1" d="M110.07,27.2c-1.78,0-3.37-.41-4.76-1.22-1.4-.82-2.51-1.95-3.32-3.4-.82-1.45-1.22-3.11-1.22-4.98s.41-3.53,1.22-4.96c.81-1.44,1.92-2.57,3.32-3.4,1.4-.83,2.99-1.24,4.76-1.24s3.37,.41,4.78,1.22c1.41,.82,2.52,1.94,3.32,3.38,.8,1.44,1.2,3.1,1.2,5s-.4,3.5-1.2,4.96c-.8,1.46-1.91,2.6-3.32,3.41-1.41,.82-3.01,1.22-4.78,1.22Zm0-1.1c1.56,0,2.95-.36,4.18-1.08,1.23-.72,2.19-1.72,2.88-3.01,.69-1.29,1.04-2.76,1.04-4.42s-.35-3.16-1.04-4.44-1.66-2.27-2.88-2.98c-1.23-.71-2.61-1.06-4.14-1.06s-2.94,.35-4.16,1.06c-1.22,.71-2.18,1.7-2.9,2.98-.72,1.28-1.08,2.76-1.08,4.44s.36,3.13,1.08,4.42c.72,1.29,1.69,2.29,2.9,3.01,1.22,.72,2.59,1.08,4.12,1.08Z"/><path class="cls-1" d="M125.33,34.17V8.14h1.17v6.64l-.33,2.88,.36,2.88v13.62h-1.2Zm9.35-6.97c-1.7,0-3.24-.4-4.6-1.19-1.36-.79-2.44-1.91-3.23-3.36-.79-1.45-1.19-3.12-1.19-5.02s.4-3.61,1.19-5.06c.79-1.45,1.87-2.57,3.23-3.38,1.36-.8,2.9-1.2,4.6-1.2s3.33,.41,4.73,1.24c1.4,.83,2.51,1.96,3.32,3.4,.82,1.44,1.22,3.1,1.22,5s-.41,3.53-1.22,4.96-1.92,2.56-3.32,3.38c-1.4,.82-2.98,1.22-4.73,1.22Zm-.04-1.1c1.53,0,2.91-.35,4.14-1.06,1.23-.71,2.2-1.7,2.9-2.99,.71-1.29,1.06-2.76,1.06-4.42s-.35-3.19-1.06-4.45c-.71-1.27-1.67-2.26-2.9-2.98-1.23-.72-2.61-1.08-4.14-1.08s-2.94,.36-4.16,1.08c-1.22,.72-2.18,1.71-2.88,2.98-.71,1.27-1.06,2.75-1.06,4.45s.35,3.13,1.06,4.42c.71,1.29,1.67,2.29,2.88,2.99,1.22,.71,2.6,1.06,4.16,1.06Z"/><path class="cls-1" d="M0,191.18L63.43,103.67v21.29L2.8,40.66h31.82l45.16,62.14-13.12,.21,44.51-62.36h30.32l-60,82.79v-20.21l63.65,87.95h-32.04l-47.31-66.23h12.69L31.82,191.18H0Z"/><g><path class="cls-1" d="M21.45,216.72c-.67,0-1.28-.11-1.84-.34-.56-.23-1.05-.54-1.47-.95-.42-.41-.74-.89-.97-1.43-.23-.55-.34-1.14-.34-1.79s.12-1.24,.34-1.79c.23-.55,.55-1.02,.97-1.43,.42-.41,.91-.73,1.47-.95,.56-.23,1.18-.34,1.84-.34,.6,0,1.17,.09,1.71,.28s.99,.47,1.38,.86l-.15,.18c-.41-.39-.86-.67-1.35-.83s-1.02-.24-1.58-.24c-.62,0-1.2,.11-1.73,.33s-1,.52-1.39,.91-.7,.84-.92,1.36c-.22,.52-.33,1.08-.33,1.68s.11,1.17,.33,1.68c.22,.52,.52,.97,.92,1.36,.4,.39,.86,.69,1.39,.91,.53,.22,1.11,.33,1.73,.33,.56,0,1.09-.08,1.59-.25,.5-.17,.94-.45,1.34-.84l.15,.19c-.38,.38-.84,.67-1.38,.86-.53,.19-1.1,.29-1.71,.29Zm2.84-1.15v-3.27h.24v3.27h-.24Z"/><path class="cls-1" d="M42.22,216.68v-8.95h3.03c.73,0,1.36,.12,1.89,.35s.93,.57,1.21,1c.28,.43,.42,.96,.42,1.59s-.14,1.14-.42,1.58c-.28,.44-.68,.78-1.21,1.01s-1.15,.35-1.89,.35h-2.89l.12-.12v3.18h-.26Zm.26-3.21l-.12-.1h2.92c1.05,0,1.85-.24,2.4-.71,.55-.47,.83-1.14,.83-1.99s-.28-1.53-.83-2c-.55-.47-1.36-.7-2.4-.7h-2.92l.12-.1v5.6Zm6.1,3.21l-2.34-3.25h.32l2.34,3.25h-.32Z"/><path class="cls-1" d="M69.58,216.72c-.66,0-1.26-.11-1.82-.34-.56-.23-1.04-.54-1.46-.95-.41-.41-.74-.89-.97-1.43-.23-.55-.34-1.14-.34-1.79s.12-1.24,.34-1.79c.23-.55,.55-1.02,.97-1.43,.41-.41,.9-.73,1.46-.95,.56-.23,1.17-.34,1.82-.34s1.26,.11,1.82,.34c.56,.23,1.04,.54,1.46,.95,.41,.41,.74,.89,.96,1.43,.23,.55,.35,1.14,.35,1.79s-.12,1.25-.35,1.79c-.23,.55-.55,1.02-.96,1.43-.41,.41-.9,.73-1.46,.95-.56,.23-1.17,.34-1.82,.34Zm0-.24c.61,0,1.19-.11,1.71-.32s.99-.51,1.38-.9c.39-.39,.7-.84,.91-1.36,.22-.52,.33-1.08,.33-1.7s-.11-1.18-.33-1.69-.52-.97-.91-1.36c-.39-.39-.85-.69-1.38-.9-.53-.21-1.1-.32-1.71-.32s-1.18,.11-1.71,.32c-.53,.21-.99,.51-1.38,.9-.39,.39-.7,.84-.91,1.36-.22,.52-.33,1.08-.33,1.69s.11,1.18,.33,1.7c.22,.52,.52,.97,.91,1.36,.39,.39,.85,.69,1.38,.9,.53,.21,1.1,.32,1.71,.32Z"/><path class="cls-1" d="M94.55,216.72c-1.07,0-1.91-.32-2.53-.95s-.93-1.58-.93-2.84v-5.21h.26v5.19c0,1.19,.28,2.08,.84,2.67,.56,.59,1.34,.88,2.36,.88s1.8-.29,2.36-.88c.56-.59,.84-1.48,.84-2.67v-5.19h.26v5.21c0,1.26-.31,2.21-.93,2.84s-1.46,.95-2.53,.95Z"/><path class="cls-1" d="M115.89,216.68v-8.95h3.03c.73,0,1.36,.12,1.89,.35s.93,.57,1.21,1c.28,.43,.42,.96,.42,1.59s-.14,1.14-.42,1.58c-.28,.44-.68,.78-1.21,1.01s-1.15,.35-1.89,.35h-2.89l.12-.12v3.18h-.26Zm.26-3.21l-.12-.1h2.92c1.05,0,1.85-.24,2.4-.71,.55-.47,.83-1.14,.83-1.99s-.28-1.53-.83-2c-.55-.47-1.36-.7-2.4-.7h-2.92l.12-.1v5.6Z"/></g></g></g></svg>